<?xml version="1.0" standalone="no"?>
<!DOCTYPE svg PUBLIC "-//W3C//DTD SVG 20010904//EN"
 "http://www.w3.org/TR/2001/REC-SVG-20010904/DTD/svg10.dtd">
<svg version="1.0" xmlns="http://www.w3.org/2000/svg"
 width="200.000000pt" height="200.000000pt" viewBox="0 0 200.000000 200.000000"
 preserveAspectRatio="xMidYMid meet">

<g transform="translate(0.000000,200.000000) scale(0.100000,-0.100000)"
fill="#000000" stroke="none">
<path d="M160 1375 c0 -8 -7 -15 -15 -15 -13 0 -15 -27 -15 -182 0 -101 -7
-257 -15 -348 -19 -213 -30 -200 172 -200 81 0 190 -5 242 -10 135 -13 131
-17 131 155 0 77 7 234 17 349 20 250 26 236 -106 236 -78 0 -243 11 -363 25
-39 5 -48 3 -48 -10z m488 -377 l2 -348 -255 0 -255 0 0 343 c0 189 3 347 7
351 4 3 117 5 252 4 l246 -3 3 -347z m25 285 c-7 -71 -11 -75 -12 -10 -1 31 3
57 8 57 5 0 6 -21 4 -47z m-546 -605 c-3 -8 -6 -5 -6 6 -1 11 2 17 5 13 3 -3
4 -12 1 -19z"/>
<path d="M466 1284 c-20 -20 -20 -48 0 -65 14 -11 13 -14 -10 -26 -20 -11 -26
-21 -26 -47 l0 -33 59 -2 c55 -1 60 0 64 21 l4 23 2 -22 c2 -36 21 -27 21 10
0 37 -15 57 -44 57 -18 0 -18 1 -3 18 10 10 17 26 17 35 0 21 -27 47 -50 47
-10 0 -26 -7 -34 -16z m41 -146 c-3 -7 -5 -2 -5 12 0 14 2 19 5 13 2 -7 2 -19
0 -25z"/>
<path d="M180 1230 c0 -6 38 -10 95 -10 57 0 95 4 95 10 0 6 -38 10 -95 10
-57 0 -95 -4 -95 -10z"/>
<path d="M218 1173 c28 -2 76 -2 105 0 28 2 5 3 -53 3 -58 0 -81 -1 -52 -3z"/>
<path d="M218 1123 c28 -2 76 -2 105 0 28 2 5 3 -53 3 -58 0 -81 -1 -52 -3z"/>
<path d="M180 1040 c0 -6 78 -10 215 -10 137 0 215 4 215 10 0 6 -78 10 -215
10 -137 0 -215 -4 -215 -10z"/>
<path d="M282 983 c59 -2 158 -2 220 0 62 1 14 3 -107 3 -121 0 -172 -2 -113
-3z"/>
<path d="M282 933 c59 -2 158 -2 220 0 62 1 14 3 -107 3 -121 0 -172 -2 -113
-3z"/>
<path d="M180 880 c0 -6 78 -10 215 -10 137 0 215 4 215 10 0 6 -78 10 -215
10 -137 0 -215 -4 -215 -10z"/>
<path d="M180 820 c0 -6 78 -10 215 -10 137 0 215 4 215 10 0 6 -78 10 -215
10 -137 0 -215 -4 -215 -10z"/>
<path d="M180 760 c0 -6 78 -10 215 -10 137 0 215 4 215 10 0 6 -78 10 -215
10 -137 0 -215 -4 -215 -10z"/>
<path d="M180 700 c0 -6 48 -10 124 -10 73 0 127 4 131 10 4 6 -40 10 -124 10
-81 0 -131 -4 -131 -10z"/>
<path d="M820 1010 l0 -180 65 0 c58 0 65 2 65 20 0 17 -7 20 -40 20 l-41 0 3
63 c3 59 4 62 31 65 19 2 27 9 27 23 0 14 -7 19 -30 19 -30 0 -30 1 -30 55 l0
55 40 0 c33 0 40 3 40 20 0 18 -7 20 -65 20 l-65 0 0 -180z"/>
<path d="M1570 1165 c-21 -22 -24 -38 -28 -115 -8 -165 14 -220 87 -220 46 0
69 23 78 74 5 34 4 36 -21 36 -19 0 -26 -5 -26 -19 0 -32 -11 -51 -30 -51 -10
0 -21 7 -24 16 -8 20 -8 228 0 248 14 36 54 4 54 -43 0 -14 6 -21 20 -21 20 0
26 18 21 64 -5 58 -88 77 -131 31z"/>
<path d="M1000 1100 c-26 -26 -27 -70 -1 -70 12 0 21 9 25 26 5 19 12 25 29
22 16 -2 23 -11 25 -34 3 -28 -2 -34 -42 -58 -54 -32 -75 -79 -54 -123 15 -31
54 -41 88 -23 13 7 20 7 20 0 0 -5 9 -10 20 -10 19 0 20 7 20 123 0 146 -9
167 -71 167 -26 0 -46 -7 -59 -20z m76 -216 c-3 -8 -15 -14 -26 -14 -30 0 -28
63 3 85 22 15 22 15 25 -21 2 -20 1 -42 -2 -50z"/>
<path d="M1204 1112 c-20 -13 -35 -53 -28 -75 3 -12 26 -48 51 -80 27 -35 43
-64 39 -73 -9 -23 -40 -12 -44 14 -3 17 -9 22 -25 20 -28 -4 -33 -32 -13 -63
22 -33 86 -35 117 -4 30 30 19 70 -37 141 -28 36 -44 65 -40 74 9 22 40 13 44
-14 2 -14 10 -22 23 -22 27 0 27 65 0 80 -23 12 -71 13 -87 2z"/>
<path d="M1340 1111 c0 -5 14 -65 30 -134 38 -157 38 -184 5 -199 -34 -15 -32
-38 3 -38 33 0 45 8 61 37 11 21 71 300 71 330 0 7 -10 13 -24 13 -21 0 -24
-6 -35 -69 -6 -39 -11 -81 -11 -95 0 -53 -17 -23 -29 52 -17 108 -19 112 -47
112 -13 0 -24 -4 -24 -9z"/>
<path d="M1755 978 c29 -134 33 -143 56 -146 23 -3 25 2 52 125 16 70 31 136
33 146 4 13 -1 17 -20 17 -29 0 -29 0 -49 -125 l-14 -80 -18 103 c-18 100 -19
102 -45 102 l-27 0 32 -142z"/>
</g>
</svg>
